<svg width="57" height="40" viewBox="0 0 57 40" fill="none" xmlns="http://www.w3.org/2000/svg">
<path fill-rule="evenodd" clip-rule="evenodd" d="M26.2789 2.63893C22.3221 3.08183 16.3229 4.9672 14.0558 6.48033L13.3106 6.97765L12.9078 6.39643C12.4506 5.73639 11.3896 4.97194 10.5278 4.68159C10.2073 4.57344 9.50787 4.48513 8.97346 4.48513C6.53245 4.48513 4.85449 5.72572 4.85449 7.5304C4.85449 9.40761 6.43698 10.8652 8.71088 11.0823L9.73925 11.1804L10.2977 12.2822C11.3548 14.3682 11.7737 17.6096 11.6849 23.0163L11.6246 26.69H14.7097H17.7948V24.1897C17.7948 21.9203 17.8305 21.6236 18.181 20.9747C18.3935 20.5816 18.7161 20.1813 18.8983 20.0849C19.1141 19.9706 22.3979 19.9098 28.3413 19.9098H37.4536L37.9336 20.4181C38.2122 20.713 38.5037 21.2974 38.6282 21.8112C38.8538 22.7407 38.8992 25.3066 38.7057 26.1782L38.5921 26.6898H41.7338L44.8753 26.69L44.8175 22.8337C44.7362 17.4121 45.2148 13.964 46.3173 12.0279C46.7958 11.1882 46.8094 11.1796 47.8087 11.0823C50.0835 10.8608 51.6454 9.4149 51.6454 7.5304C51.6454 5.72572 49.9674 4.48513 47.5264 4.48513C46.992 4.48513 46.2925 4.57344 45.972 4.68159C45.1102 4.97194 44.0493 5.73639 43.5921 6.39643L43.1893 6.97765L42.4441 6.48033C40.0893 4.90855 34.2075 3.0876 30.0134 2.63198C28.1793 2.43264 28.1211 2.43281 26.2789 2.63893ZM31.3555 3.73018C34.8956 4.3397 40.8235 6.47067 42.4963 7.73515C42.6343 7.83939 42.5792 8.17788 42.3011 8.93709C41.8523 10.1617 41.4144 12.5702 41.2518 14.7064C41.1391 16.1885 41.1355 16.198 40.6928 16.1471L40.2476 16.096L40.3053 14.5704C40.3371 13.7314 40.5035 12.0925 40.6753 10.9285C40.8929 9.45457 40.9358 8.71605 40.8163 8.49554C40.4771 7.86871 35.6562 6.07201 32.2777 5.31331C29.8343 4.76465 26.5889 4.76261 24.2222 5.30856C22.1198 5.79351 19.2758 6.70814 17.3982 7.5031C15.4573 8.32484 15.4351 8.37485 15.831 11.0109C15.999 12.1296 16.1909 13.7504 16.2576 14.6128L16.3788 16.1807H15.8687H15.3588L15.2443 14.6801C15.0827 12.5634 14.6773 10.22 14.2787 9.09828C14.0915 8.5718 13.9384 8.05025 13.9384 7.93888C13.9384 7.46005 18.34 5.5174 21.5655 4.57277C25.2237 3.50152 28.4263 3.22591 31.3555 3.73018ZM10.0819 5.51977C13.1809 6.2915 14.7951 11.7661 14.272 19.7315C14.1645 21.3678 13.9878 23.393 13.879 24.232L13.6814 25.7576L13.1426 25.8092L12.604 25.8612L12.5222 21.3175C12.4243 15.8807 12.085 13.7033 11.0033 11.5727L10.6862 10.948L11.1983 10.4416C11.6258 10.0188 11.7103 9.79966 11.7103 9.11404C11.7103 6.92731 9.20073 5.71572 7.78467 7.21868C7.29961 7.73362 7.32515 8.46943 7.84619 8.98454C8.54995 9.68068 9.48217 9.45915 9.48217 8.59587C9.48217 8.31366 9.33167 8.13517 8.96507 7.98278C8.32782 7.71786 8.47384 7.53616 9.32413 7.53616C10.5326 7.53616 11.3238 9.09708 10.492 9.84053C10.2162 10.087 9.88168 10.1612 9.07802 10.1543C5.54367 10.1238 4.40887 6.28676 7.70754 5.52011C8.63685 5.30433 9.21599 5.30416 10.0819 5.51977ZM49.5377 5.7842C51.277 6.60034 51.0847 8.79826 49.1887 9.77679C48.2284 10.2722 46.5289 10.3063 46.0078 9.84053C45.519 9.40354 45.5519 8.69029 46.0903 8.05771C46.4403 7.64633 46.6696 7.53616 47.1757 7.53616C48.0261 7.53616 48.172 7.71786 47.5349 7.98278C47.1682 8.13517 47.0177 8.31366 47.0177 8.59587C47.0177 9.45915 47.9499 9.68068 48.6537 8.98454C49.1748 8.46943 49.2003 7.73362 48.7152 7.21868C47.2991 5.71572 44.7896 6.92731 44.7896 9.11404C44.7896 9.80577 44.8731 10.0178 45.3192 10.459L45.8487 10.9828L45.5119 11.5901C44.4442 13.5138 44.0761 15.8475 43.9776 21.3175L43.8959 25.8612L43.3573 25.8092L42.8186 25.7576L42.6145 24.1473C42.0059 19.3486 42.0101 14.4008 42.6249 11.2652C43.2458 8.0972 44.5695 6.04658 46.3322 5.5218C47.1144 5.28891 48.7714 5.42451 49.5377 5.7842ZM32.429 6.11591C34.5446 6.58254 37.0998 7.41394 38.9982 8.25348L40.1979 8.78402L40.0958 9.55847C39.7987 11.8132 39.4763 14.8079 39.4763 15.3139V15.89L38.4051 15.7768C35.984 15.5208 29.9965 15.1684 28.0297 15.1662C26.0509 15.1639 25.934 15.1452 26.0902 14.8567C26.2111 14.6332 26.077 13.9323 25.5954 12.2718C25.2319 11.0191 24.8549 9.78883 24.758 9.53814C24.4145 8.65113 24.1022 8.63961 21.346 9.41169C19.9584 9.80035 18.6892 10.1878 18.5253 10.2729C17.9744 10.5587 17.9995 11.1845 18.6501 13.3895C18.9973 14.5667 19.2346 15.5761 19.1774 15.6327C19.12 15.6895 18.6119 15.7688 18.0483 15.8092L17.0236 15.8824L17.022 15.2264C17.0208 14.6388 16.7315 11.9659 16.418 9.64322L16.302 8.78402L17.5586 8.22823C20.0521 7.12562 24.3885 5.89487 26.793 5.60723C27.981 5.46501 30.5155 5.69385 32.429 6.11591ZM24.222 9.78205C24.3121 9.99172 24.6669 11.1492 25.0104 12.3542C25.5713 14.3218 25.6074 14.5649 25.3631 14.7415C24.9968 15.0062 20.6715 16.215 20.3277 16.1487C19.9978 16.0849 18.4835 11.1096 18.7223 10.8735C18.912 10.6858 23.1449 9.43965 23.6687 9.41728C23.9196 9.4066 24.1164 9.53627 24.222 9.78205ZM41.2543 19.3588C41.3728 21.5595 41.6388 24.3647 41.809 25.2066L41.9032 25.6727L40.8182 25.6725L39.7334 25.6719L39.7279 23.8504C39.7211 21.5697 39.3988 20.5254 38.4373 19.6662L37.7614 19.0623H28.2499H18.7385L18.0625 19.6662C17.101 20.5254 16.7788 21.5697 16.7719 23.8504L16.7665 25.6719L15.6817 25.6725L14.5968 25.6727L14.696 25.2066C14.8667 24.4055 15.3096 19.3995 15.3096 18.2721V17.1977H28.2238H41.138L41.2543 19.3588Z" fill="#024FAA"/>
<path d="M3.47176 32.288H3.95654C5.02503 32.288 5.55928 32.8884 5.55928 34.0896V36.0558C5.55928 37.2569 5.02503 37.8574 3.95654 37.8574H3.47176V38.6501H2.70996V37.8574H2.22518C1.15668 37.8574 0.622437 37.2569 0.622437 36.0558V34.0896C0.622437 32.8884 1.15668 32.288 2.22518 32.288H2.70996V31.4438H3.47176V32.288ZM2.70996 32.9983H2.22518C1.66456 32.9983 1.38423 33.345 1.38423 34.0381V36.1073C1.38423 36.8073 1.66456 37.1573 2.22518 37.1573H2.70996V32.9983ZM3.47176 37.1573H3.95654C4.52377 37.1573 4.80737 36.8073 4.80737 36.1073V34.0381C4.80737 33.345 4.52377 32.9983 3.95654 32.9983H3.47176V37.1573ZM8.84724 37.1985H7.0961L6.82897 38.6501H6.11664L7.44237 31.4438H8.56033L9.88606 38.6501H9.11437L8.84724 37.1985ZM7.95683 32.3498L7.19503 36.5088H8.73841L7.95683 32.3498ZM11.26 34.419H12.0713C13.1595 34.419 13.7037 34.9818 13.7037 36.1073V36.9C13.7037 38.0666 13.1728 38.6501 12.1108 38.6501H10.4982V31.4438H13.4168V32.1748H11.26V34.419ZM11.26 37.9191H12.1108C12.3945 37.9191 12.6022 37.8437 12.7341 37.6927C12.8661 37.5349 12.932 37.2878 12.932 36.9515V36.0558C12.932 35.7195 12.8627 35.4827 12.7242 35.3455C12.5857 35.2083 12.3681 35.1396 12.0713 35.1396H11.26V37.9191ZM14.4592 31.4438H15.9729C17.0085 31.4438 17.5262 32.0306 17.5262 33.2042V34.069C17.5262 35.2289 16.9888 35.8088 15.9136 35.8088H15.2309V38.6501H14.4592V31.4438ZM15.2309 35.0881H15.9136C16.2037 35.0881 16.4182 35.0127 16.5567 34.8617C16.6952 34.7106 16.7644 34.4635 16.7644 34.1204V33.163C16.7644 32.8267 16.7018 32.5796 16.5764 32.4218C16.4511 32.2571 16.25 32.1748 15.9729 32.1748H15.2309V35.0881ZM20.7029 32.916L19.9609 35.3043L18.932 38.6501H18.1306V31.4438H18.8132V36.8176L19.5256 34.5425L20.5347 31.4438H21.3954V38.6501H20.7029V32.916ZM24.8403 38.6501L23.3563 35.5205L22.9506 36.2308V38.6501H22.1789V31.4438H22.9506V34.9234L24.7908 31.4438H25.5724L23.8213 34.7278L25.6318 38.6501H24.8403ZM28.7598 37.1985H27.0087L26.7416 38.6501H26.0292L27.355 31.4438H28.4729L29.7986 38.6501H29.0269L28.7598 37.1985ZM27.8694 32.3498L27.1076 36.5088H28.651L27.8694 32.3498ZM35.5878 32.8542L34.4897 38.6398H33.7476L32.6 32.9057V38.6501H31.9272V31.4438H33.0056L34.1434 37.1985L35.2416 31.4438H36.3199V38.6501H35.5878V32.8542ZM37.8874 34.6352H39.5792V35.3558H37.8874V37.9191H39.965V38.6501H37.1157V31.4438H39.965V32.1748H37.8874V34.6352ZM41.4525 34.419H42.2638C43.352 34.419 43.8962 34.9818 43.8962 36.1073V36.9C43.8962 38.0666 43.3652 38.6501 42.3033 38.6501H40.6907V31.4438H43.6093V32.1748H41.4525V34.419ZM41.4525 37.9191H42.3033C42.587 37.9191 42.7948 37.8437 42.9266 37.6927C43.0585 37.5349 43.1245 37.2878 43.1245 36.9515V36.0558C43.1245 35.7195 43.0552 35.4827 42.9167 35.3455C42.7782 35.2083 42.5606 35.1396 42.2638 35.1396H41.4525V37.9191ZM45.4234 34.6352H47.1152V35.3558H45.4234V37.9191H47.5011V38.6501H44.6517V31.4438H47.5011V32.1748H45.4234V34.6352ZM51.0167 32.1748H49.691L49.5327 36.8588C49.5129 37.4695 49.4008 37.9225 49.1963 38.2177C48.9918 38.5059 48.639 38.6534 48.1377 38.6604H48.0091V37.9294C48.3125 37.9294 48.5136 37.854 48.6126 37.703C48.7115 37.5452 48.7676 37.2775 48.7808 36.9L48.9687 31.4438H51.7884V38.6501H51.0167V32.1748ZM55.1851 32.916L54.4431 35.3043L53.4141 38.6501H52.6128V31.4438H53.2954V36.8176L54.0077 34.5425L55.0169 31.4438H55.8776V38.6501H55.1851V32.916Z" fill="black"/>
</svg>
