<svg width="21" height="22" viewBox="0 0 21 22" fill="none" xmlns="http://www.w3.org/2000/svg">
<path d="M19.3816 14.2476C18.117 14.2476 16.8784 14.0502 15.7045 13.6628C15.1316 13.4654 14.481 13.6175 14.1045 14.0016L11.7772 15.7592C9.10677 14.334 7.39772 12.626 5.99186 9.97501L7.70198 7.70274C8.13248 7.27224 8.28679 6.64212 8.10229 6.05195C7.71169 4.8705 7.51318 3.63079 7.51318 2.36842C7.51318 1.47612 6.78707 0.75 5.89476 0.75H2.11842C1.22612 0.75 0.5 1.47612 0.5 2.36842C0.5 12.7792 8.97082 21.25 19.3816 21.25C20.2739 21.25 21 20.5239 21 19.6316V15.8661C21 14.9738 20.2739 14.2476 19.3816 14.2476Z" fill="#353D46"/>
</svg>
